<svg width="18" height="18" fill="none" xmlns="http://www.w3.org/2000/svg"><path fill-rule="evenodd" clip-rule="evenodd" d="M10.444 2.284a.598.598 0 00-.512.19c-.199.233-.28.423-.378.705l-.035.098a6.106 6.106 0 01-.486 1.112c-.449.795-.867 1.275-1.382 1.727-.422.37-.851.621-1.276.741v7.937a80.354 80.354 0 005.953-.082c.683-.036 1.275-.373 1.584-.923.433-.77.968-1.901 1.291-3.232.302-1.24.44-2.26.501-2.98.03-.333-.235-.64-.644-.64h-3.737a.562.562 0 01-.52-.775V6.16l.003-.007.013-.03.046-.122c.04-.105.095-.254.153-.43a7.45 7.45 0 00.303-1.178c.087-.587.066-1.058-.164-1.494-.247-.47-.528-.593-.713-.615zm1.679 3.529h2.937c.993 0 1.857.797 1.765 1.86a21.07 21.07 0 01-.528 3.15 14.083 14.083 0 01-1.404 3.517c-.524.931-1.494 1.443-2.507 1.495-.978.05-2.428.105-4.136.105-1.655 0-3.168-.051-4.24-.1-1.205-.055-2.217-.951-2.347-2.178A28.676 28.676 0 011.5 10.69c0-1.027.066-1.958.142-2.697.135-1.291 1.243-2.18 2.489-2.18h1.681c.24 0 .61-.117 1.097-.543.422-.37.76-.752 1.144-1.434.21-.372.306-.648.403-.927l.037-.104c.116-.331.252-.674.584-1.062.342-.4.904-.645 1.497-.576.62.072 1.191.473 1.578 1.207.39.74.385 1.491.281 2.185-.064.433-.193.89-.31 1.254zm-6.873 8.95V6.938H4.13c-.722 0-1.3.504-1.369 1.171a25.39 25.39 0 00-.136 2.58c0 1.071.075 2.075.157 2.854.069.648.602 1.142 1.28 1.173.352.016.751.032 1.188.047z" fill="#9499A0"/></svg>