<svg width="16" height="16" fill="none" xmlns="http://www.w3.org/2000/svg"><path fill-rule="evenodd" clip-rule="evenodd" d="M3.742 3.424A52.952 52.952 0 018 3.25c1.714 0 3.208.088 4.258.174A1.45 1.45 0 0113.6 4.745c.078.862.151 2.004.151 3.255s-.073 2.393-.15 3.255a1.45 1.45 0 01-1.342 1.321c-1.05.086-2.544.174-4.258.174s-3.208-.088-4.258-.174A1.45 1.45 0 012.4 11.254 36.666 36.666 0 012.25 8c0-1.25.073-2.393.15-3.254a1.45 1.45 0 011.342-1.322zM8 2.25c-1.747 0-3.27.09-4.34.177a2.45 2.45 0 00-2.255 2.229C1.325 5.539 1.25 6.712 1.25 8c0 1.288.075 2.461.155 3.344a2.45 2.45 0 002.255 2.229A53.91 53.91 0 008 13.75c1.747 0 3.27-.09 4.34-.177a2.45 2.45 0 002.255-2.229c.08-.882.155-2.056.155-3.344 0-1.288-.075-2.462-.155-3.345a2.45 2.45 0 00-2.255-2.228A53.953 53.953 0 008 2.25zm1.75 6.328a.667.667 0 000-1.155l-2.5-1.444a.667.667 0 00-1 .577v2.888c0 .513.555.834 1 .578l2.5-1.444z" fill="#9499A0"/></svg>